<?xml version="1.0" encoding="iso-8859-1"?>
<!-- Generator: Adobe Illustrator 18.0.0, SVG Export Plug-In . SVG Version: 6.00 Build 0)  -->
<!DOCTYPE svg PUBLIC "-//W3C//DTD SVG 1.1//EN" "http://www.w3.org/Graphics/SVG/1.1/DTD/svg11.dtd">
<svg version="1.1" id="Capa_1" xmlns="http://www.w3.org/2000/svg" xmlns:xlink="http://www.w3.org/1999/xlink" x="0px" y="0px"
	 viewBox="0 0 298.334 298.334" style="enable-background:new 0 0 298.334 298.334;" xml:space="preserve">
<g>
	<path d="M183.167,61.394h-68c-5.522,0-10,4.478-10,10V226.94c0,5.522,4.478,10,10,10h68c5.522,0,10-4.478,10-10V71.394
		C193.167,65.871,188.689,61.394,183.167,61.394z"/>
	<path d="M75.667,108.514H10c-5.522,0-10,4.478-10,10V226.94c0,5.522,4.478,10,10,10h65.667c5.522,0,10-4.478,10-10V118.514
		C85.667,112.991,81.189,108.514,75.667,108.514z"/>
	<path d="M288.334,135.607h-66.667c-5.522,0-10,4.478-10,10v81.333c0,5.522,4.478,10,10,10h66.667c5.522,0,10-4.478,10-10v-81.333
		C298.334,140.085,293.856,135.607,288.334,135.607z"/>
</g>
<g>
</g>
<g>
</g>
<g>
</g>
<g>
</g>
<g>
</g>
<g>
</g>
<g>
</g>
<g>
</g>
<g>
</g>
<g>
</g>
<g>
</g>
<g>
</g>
<g>
</g>
<g>
</g>
<g>
</g>
</svg>
