<svg xmlns="http://www.w3.org/2000/svg" viewBox="0 0 196.2 204.08"><defs><style>.cls-1{fill:none;stroke:#daa628;stroke-miterlimit:10;}.cls-2{fill:#fff;}</style></defs><title>Asset 3</title><g id="Layer_2" data-name="Layer 2"><g id="Layer_1-2" data-name="Layer 1"><ellipse class="cls-1" cx="54.21" cy="39.76" rx="19.4" ry="41.84" transform="translate(-12.62 32.43) rotate(-30)"/><ellipse class="cls-1" cx="142.99" cy="40.08" rx="41.84" ry="19.4" transform="translate(36.78 143.87) rotate(-60)"/><path class="cls-2" d="M96.49,71.38a51.23,51.23,0,1,0,51.22,51.23A51.23,51.23,0,0,0,96.49,71.38Zm6.68,70.22A22.16,22.16,0,0,1,100,141c-1.77-.43-2.86-.72-3.27-.88a32,32,0,0,1-11.75,2.41,19.72,19.72,0,0,1-14.85-6,20.74,20.74,0,0,1-5.74-15q0-9.28,5.57-15.41a19.17,19.17,0,0,1,14.91-6.33,20.92,20.92,0,0,1,8.38,1.7,15.93,15.93,0,0,1,6.68,5.28,2.24,2.24,0,0,1,.49,1q0,.94-2.62,4.21c-1.75,2.17-2.87,3.26-3.38,3.26a5.63,5.63,0,0,1-1.35-1.2,12.32,12.32,0,0,0-2.93-2.22,10.07,10.07,0,0,0-4.92-1.21,8.38,8.38,0,0,0-7,3.29,11.65,11.65,0,0,0-2.41,7.52,10.91,10.91,0,0,0,2.49,7.56,9.28,9.28,0,0,0,7.3,2.87,17.94,17.94,0,0,0,6.68-1.49c-.06-.64-.24-2.28-.53-4.92a42.31,42.31,0,0,1-.38-4.92c0-.37.13-.6.38-.68a1.33,1.33,0,0,1,.47-.06c.57,0,1.42.06,2.56.17s2,.16,2.6.16,1.56,0,2.81-.14,2.19-.13,2.81-.13.73.33.73,1c0,.94,0,2.35-.16,4.25s-.16,3.31-.16,4.25c0,2.52.19,6.28.56,11.3l0,.33C104,141.33,103.75,141.6,103.17,141.6Zm19.89-3.14a21.45,21.45,0,0,1-10.69,4.78l-.38,0q-.67,0-3-4.12c-1.55-2.74-2.32-4.42-2.32-5,0-.22.15-.35.44-.41a31.62,31.62,0,0,0,5.63-1.64,4.84,4.84,0,0,0,3-4.52,6.86,6.86,0,0,0-2-4.24c-2.3-2.66-3.55-4.13-3.75-4.43a11.89,11.89,0,0,1-2-6.74q0-5.36,5-8.9a22.25,22.25,0,0,1,9.93-3.81l.5,0c.29,0,.53.23.7.7q.77,2.15,3.55,7.74a.64.64,0,0,1,.09.29c0,.33-.18.5-.53.5a5.64,5.64,0,0,1-.79-.09,5.83,5.83,0,0,0-.85-.09,7,7,0,0,0-3.69,1,3.45,3.45,0,0,0-1.91,3.11c0,1.19.71,2.65,2.11,4.39l3.9,4.92a11.75,11.75,0,0,1,2.08,6.42A12.94,12.94,0,0,1,123.06,138.46Z"/><path class="cls-2" d="M58.49,90.23l5.56,8.48A41.31,41.31,0,0,1,83.08,85l-3.63-5.5a1.1,1.1,0,0,1,0-1.39,42.71,42.71,0,0,0,2.85-5A37,37,0,0,0,84.4,50.61C81.12,34,72,20.25,57.08,9.6A50.18,50.18,0,0,0,34.19.35c-7.38-1-14.35,0-20.61,3.77A26.1,26.1,0,0,0,2.37,17.63C-.58,25.28-.54,33.08,1.19,40.92A62.94,62.94,0,0,0,15.57,68.66,63.42,63.42,0,0,0,36,84.53a44.73,44.73,0,0,0,21,4.93A1.52,1.52,0,0,1,58.49,90.23ZM41,10.24l.2-.18c2.44,1.4,4.93,2.75,7.32,4.22a68.52,68.52,0,0,1,18,15.43,44.17,44.17,0,0,1,9.71,33.63,78.23,78.23,0,0,1-1.6,8.71C72,47.82,61.08,27.12,41,10.24Z"/><path class="cls-2" d="M150.75,187.84c-7.68-11.76-15.43-23.49-23.15-35.22l-1.89-2.87a42.66,42.66,0,0,1-21.79,9.58q10.45,15.88,20.89,31.77c1.9,2.88,3.78,5.78,5.77,8.61,2.41,3.41,8.27,5.18,13,4C151.44,201.78,154.92,194.21,150.75,187.84Z"/><path class="cls-2" d="M69.34,151.5l-.74,1.12Q57,170.21,45.44,187.84c-4.16,6.37-.68,13.94,7.21,15.89,4.69,1.16,10.56-.61,13-4,2-2.83,3.88-5.73,5.77-8.61q9.6-14.58,19.18-29.17A42.49,42.49,0,0,1,69.34,151.5Z"/><path class="cls-2" d="M193.83,17.63A26.1,26.1,0,0,0,182.62,4.12C176.35.38,169.39-.62,162,.35A50.18,50.18,0,0,0,139.12,9.6c-14.93,10.65-24,24.38-27.32,41A36.89,36.89,0,0,0,113.86,73a44.09,44.09,0,0,0,2.84,5,1.09,1.09,0,0,1,0,1.39c-1.73,2.61-3.44,5.23-5.17,7.84a41.67,41.67,0,0,1,19.59,12.9l6.54-10a1.52,1.52,0,0,1,1.53-.77,44.73,44.73,0,0,0,21-4.93,63.42,63.42,0,0,0,20.43-15.87A62.94,62.94,0,0,0,195,40.92C196.74,33.08,196.77,25.28,193.83,17.63ZM121.56,72.05A78.19,78.19,0,0,1,120,63.34a44.13,44.13,0,0,1,9.71-33.63,68.52,68.52,0,0,1,18-15.43c2.39-1.47,4.88-2.82,7.32-4.22l.2.18C135.12,27.12,124.2,47.82,121.56,72.05Z"/></g></g></svg>